<svg width="81" height="18" viewBox="0 0 81 18" fill="none" xmlns="http://www.w3.org/2000/svg">
<path fill-rule="evenodd" clip-rule="evenodd" d="M4.23348 10.2993L3.45457 11.7654V16.6909H0.93457V0.654525H3.45457V7.6418L6.75348 0.654525H9.27348L5.76839 7.80216L9.27348 16.6909H6.68475L4.23348 10.2993ZM12.8309 13.0025C12.8309 13.5829 12.9493 13.9914 13.186 14.2282C13.4228 14.4649 13.7397 14.5833 14.1368 14.5833C14.5338 14.5833 14.8508 14.4649 15.0875 14.2282C15.3242 13.9914 15.4426 13.5829 15.4426 13.0025V4.34289C15.4426 3.76252 15.3242 3.35398 15.0875 3.11725C14.8508 2.88052 14.5338 2.76216 14.1368 2.76216C13.7397 2.76216 13.4228 2.88052 13.186 3.11725C12.9493 3.35398 12.8309 3.76252 12.8309 4.34289V13.0025ZM10.3109 4.50325C10.3109 3.20506 10.6393 2.20853 11.296 1.51362C11.9528 0.818703 12.8997 0.471252 14.1368 0.471252C15.3738 0.471252 16.3207 0.818703 16.9775 1.51362C17.6342 2.20853 17.9626 3.20506 17.9626 4.50325V12.8422C17.9626 14.1403 17.6342 15.1369 16.9775 15.8318C16.3207 16.5267 15.3738 16.8742 14.1368 16.8742C12.8997 16.8742 11.9528 16.5267 11.296 15.8318C10.6393 15.1369 10.3109 14.1403 10.3109 12.8422V4.50325ZM22.0928 5.07598V16.6909H19.8248V0.654525H22.9862L25.5749 10.2534V0.654525H27.82V16.6909H25.2313L22.0928 5.07598ZM29.5677 4.50325C29.5677 3.20506 29.8769 2.20853 30.4955 1.51362C31.114 0.818703 32.0418 0.471252 33.2789 0.471252C34.516 0.471252 35.4438 0.818703 36.0624 1.51362C36.6809 2.20853 36.9902 3.20506 36.9902 4.50325V5.00725H34.6077V4.34289C34.6077 3.76252 34.4969 3.35398 34.2755 3.11725C34.054 2.88052 33.7448 2.76216 33.3477 2.76216C32.9506 2.76216 32.6413 2.88052 32.4198 3.11725C32.1984 3.35398 32.0877 3.76252 32.0877 4.34289C32.0877 4.89271 32.2098 5.37761 32.4542 5.79762C32.6986 6.21762 33.004 6.61471 33.3706 6.98889C33.7371 7.36307 34.1304 7.73725 34.5504 8.11143C34.9704 8.48562 35.3637 8.89416 35.7302 9.33707C36.0968 9.77998 36.4022 10.284 36.6466 10.8491C36.8909 11.4142 37.0131 12.0785 37.0131 12.8422C37.0131 14.1403 36.6962 15.1369 36.0624 15.8318C35.4286 16.5267 34.4931 16.8742 33.256 16.8742C32.0189 16.8742 31.0835 16.5267 30.4497 15.8318C29.8158 15.1369 29.4989 14.1403 29.4989 12.8422V11.8571H31.8815V13.0025C31.8815 13.5829 31.9998 13.9876 32.2366 14.2167C32.4733 14.4458 32.7902 14.5603 33.1873 14.5603C33.5844 14.5603 33.9013 14.4458 34.138 14.2167C34.3748 13.9876 34.4931 13.5829 34.4931 13.0025C34.4931 12.4527 34.3709 11.9678 34.1266 11.5478C33.8822 11.1278 33.5768 10.7307 33.2102 10.3565C32.8437 9.98234 32.4504 9.60816 32.0304 9.23398C31.6104 8.8598 31.2171 8.45125 30.8506 8.00834C30.484 7.56543 30.1786 7.06144 29.9342 6.49634C29.6898 5.93125 29.5677 5.26689 29.5677 4.50325ZM37.9818 0.654525H45.7709V2.94543H43.1364V16.6909H40.6164V2.94543H37.9818V0.654525ZM52.3982 16.6909C52.3677 16.584 52.3371 16.4847 52.3066 16.3931C52.276 16.3014 52.2493 16.1869 52.2264 16.0494C52.2035 15.912 52.1882 15.7363 52.1806 15.5225C52.1729 15.3087 52.1691 15.0414 52.1691 14.7207V12.2007C52.1691 11.4523 52.0393 10.9254 51.7797 10.62C51.52 10.3145 51.1 10.1618 50.5197 10.1618H49.6491V16.6909H47.1291V0.654525H50.932C52.2455 0.654525 53.1962 0.959977 53.7842 1.57089C54.3722 2.1818 54.6662 3.10579 54.6662 4.34289V5.60289C54.6662 7.25235 54.1164 8.3367 53.0168 8.85598C53.6582 9.11562 54.0973 9.53943 54.334 10.1274C54.5708 10.7154 54.6891 11.4294 54.6891 12.2694V14.7436C54.6891 15.1407 54.7044 15.4882 54.7349 15.786C54.7655 16.0838 54.8418 16.3854 54.964 16.6909H52.3982ZM49.6491 2.94543V7.87089H50.6342C51.1077 7.87089 51.478 7.74871 51.7453 7.50434C52.0126 7.25998 52.1462 6.81707 52.1462 6.17562V4.59489C52.1462 4.01452 52.0431 3.59453 51.8369 3.33489C51.6308 3.07525 51.3062 2.94543 50.8633 2.94543H49.6491ZM59.0026 0.654525V13.0254C59.0026 13.6058 59.1209 14.0105 59.3577 14.2396C59.5944 14.4687 59.9113 14.5833 60.3084 14.5833C60.7055 14.5833 61.0224 14.4687 61.2591 14.2396C61.4958 14.0105 61.6142 13.6058 61.6142 13.0254V0.654525H63.9968V12.8651C63.9968 14.1633 63.6798 15.1598 63.046 15.8547C62.4122 16.5496 61.4768 16.8971 60.2397 16.8971C59.0026 16.8971 58.0671 16.5496 57.4333 15.8547C56.7995 15.1598 56.4826 14.1633 56.4826 12.8651V0.654525H59.0026ZM72.8593 0.654525H80.6484V2.94543H78.0138V16.6909H75.4938V2.94543H72.8593V0.654525Z" fill="#171819"/>
<path fill-rule="evenodd" clip-rule="evenodd" d="M65.1938 8.98834L71.7393 0.806519V17.1702L65.1938 8.98834Z" fill="#00A4E5"/>
</svg>
