<svg width="108" height="100" viewBox="0 0 108 100" fill="none" xmlns="http://www.w3.org/2000/svg">
<g clip-path="url(#clip0_1_138)" filter="url(#filter0_d_1_138)">
<path d="M90.2534 36.4205C70.1706 16.3377 37.4966 16.3377 17.4139 36.4205L4 49.8326L17.7466 63.5793C27.7872 73.6198 40.9764 78.6418 54.1672 78.6418C67.3581 78.6418 80.5456 73.6215 90.5878 63.5793L104.002 50.1654L90.2534 36.4205ZM88.1976 61.1907C69.4324 79.9543 38.9003 79.9543 20.1351 61.1907L8.77703 49.8326L19.8024 38.8073C38.5676 20.0438 69.0997 20.0438 87.8649 38.8073L99.223 50.1654L88.1976 61.1907Z" fill="white"/>
<path d="M52.2635 36.4355C45.7432 36.4355 40.4392 41.7396 40.4392 48.2599C40.4392 49.1923 41.1959 49.9491 42.1284 49.9491C43.0608 49.9491 43.8176 49.1923 43.8176 48.2599C43.8176 43.6028 47.6064 39.8139 52.2635 39.8139C53.1959 39.8139 53.9527 39.0572 53.9527 38.1247C53.9527 37.1923 53.1976 36.4355 52.2635 36.4355Z" fill="white"/>
<path d="M53.9595 28C41.8514 28 32 37.8514 32 49.9595C32 62.0676 41.8514 71.9189 53.9595 71.9189C66.0676 71.9189 75.9189 62.0676 75.9189 49.9595C75.9189 37.8514 66.0693 28 53.9595 28ZM53.9595 68.5405C43.7145 68.5405 35.3784 60.2044 35.3784 49.9595C35.3784 39.7145 43.7145 31.3784 53.9595 31.3784C64.2044 31.3784 72.5405 39.7145 72.5405 49.9595C72.5405 60.2044 64.2061 68.5405 53.9595 68.5405Z" fill="white"/>
</g>
<defs>
<filter id="filter0_d_1_138" x="0" y="0" width="108" height="108" filterUnits="userSpaceOnUse" color-interpolation-filters="sRGB">
<feFlood flood-opacity="0" result="BackgroundImageFix"/>
<feColorMatrix in="SourceAlpha" type="matrix" values="0 0 0 0 0 0 0 0 0 0 0 0 0 0 0 0 0 0 127 0" result="hardAlpha"/>
<feOffset dy="4"/>
<feGaussianBlur stdDeviation="2"/>
<feComposite in2="hardAlpha" operator="out"/>
<feColorMatrix type="matrix" values="0 0 0 0 0 0 0 0 0 0 0 0 0 0 0 0 0 0 0.25 0"/>
<feBlend mode="normal" in2="BackgroundImageFix" result="effect1_dropShadow_1_138"/>
<feBlend mode="normal" in="SourceGraphic" in2="effect1_dropShadow_1_138" result="shape"/>
</filter>
<clipPath id="clip0_1_138">
<rect width="100" height="100" fill="white" transform="translate(4)"/>
</clipPath>
</defs>
</svg>
